<svg id="visual" viewBox="0 0 1900 70" width="1900" height="70" xmlns="http://www.w3.org/2000/svg" xmlns:xlink="http://www.w3.org/1999/xlink" version="1.1"><path d="M0 64L63.3 62.8C126.7 61.7 253.3 59.3 380 52.2C506.7 45 633.3 33 760 29.2C886.7 25.3 1013.3 29.7 1140 36C1266.7 42.3 1393.3 50.7 1520 50C1646.7 49.3 1773.3 39.7 1836.7 34.8L1900 30L1900 71L1836.7 71C1773.3 71 1646.7 71 1520 71C1393.3 71 1266.7 71 1140 71C1013.3 71 886.7 71 760 71C633.3 71 506.7 71 380 71C253.3 71 126.7 71 63.3 71L0 71Z" fill="#F7770F" stroke-linecap="round" stroke-linejoin="miter"></path></svg>